<svg width="23" height="22" viewBox="0 0 23 22" fill="none" xmlns="http://www.w3.org/2000/svg">
<g id="paper-airplane 1">
<g id="Group">
<path id="Layer 2" d="M20.3505 2.80924L2.76082 9.67751C2.63675 9.72658 2.53103 9.81307 2.45837 9.92498C2.38571 10.0369 2.34971 10.1687 2.35538 10.302C2.36104 10.4353 2.40809 10.5635 2.48998 10.6688C2.57187 10.7742 2.68454 10.8514 2.81234 10.8898L6.12971 11.8582C6.48475 11.9628 6.8086 12.1532 7.0727 12.4125C7.33681 12.6718 7.53306 12.9921 7.64416 13.3452L8.95257 17.4936C8.99204 17.6204 9.06382 17.7348 9.16085 17.8255C9.25789 17.9162 9.37685 17.9801 9.50606 18.011C9.63526 18.0418 9.77026 18.0385 9.89779 18.0014C10.0253 17.9642 10.141 17.8946 10.2335 17.7992L12.033 15.962C12.1749 15.8164 12.3648 15.7272 12.5674 15.7108C12.7701 15.6943 12.9718 15.7519 13.1353 15.8727L17.0812 18.7677C17.2087 18.8596 17.3571 18.9183 17.513 18.9386C17.6689 18.9589 17.8274 18.9401 17.9742 18.8839C18.121 18.8277 18.2515 18.7358 18.354 18.6166C18.4565 18.4974 18.5277 18.3546 18.5613 18.201L21.5627 3.84291C21.5977 3.68312 21.5885 3.51684 21.5363 3.36183C21.4842 3.20681 21.3909 3.06888 21.2664 2.96275C21.1419 2.85662 20.991 2.78629 20.8297 2.75925C20.6684 2.73221 20.5027 2.74949 20.3505 2.80924ZM18.1629 5.89996L12.2287 11.1576C11.8922 11.449 11.6766 11.8557 11.6243 12.2978C11.6124 12.3896 11.5696 12.4746 11.503 12.539C11.4365 12.6033 11.35 12.6431 11.2578 12.6519C11.1656 12.6607 11.0732 12.6379 10.9957 12.5873C10.9181 12.5367 10.8601 12.4612 10.831 12.3733L10.5597 11.5045C10.4655 11.1995 10.4751 10.872 10.5869 10.5731C10.6988 10.2742 10.9066 10.0208 11.1779 9.85265L17.9637 5.64927C17.9986 5.63415 18.0376 5.63151 18.0741 5.64182C18.1107 5.65212 18.1425 5.67473 18.1643 5.70583C18.1861 5.73692 18.1965 5.77459 18.1938 5.81246C18.191 5.85034 18.1753 5.8861 18.1492 5.9137L18.1629 5.89996Z" fill="white"/>
</g>
</g>
</svg>
