<svg width="130" height="30" viewBox="0 0 130 30" fill="none" xmlns="http://www.w3.org/2000/svg">
<g id="Group 1">
<g id="Events.ly">
<path d="M56.4876 20.4116H46.6984V6.13105H56.4876V8.98914H49.5565V11.8472H54.2469V14.7053H49.5565V17.5535H56.4876V20.4116Z" fill="white"/>
<path d="M60.9291 20.4116L56.866 9.74599H59.9631L62.2934 16.3983L64.6137 9.74599H67.7208L63.6577 20.4116H60.9291Z" fill="white"/>
<path d="M72.6801 17.8024C72.7864 17.8356 72.8926 17.8589 72.9988 17.8721C73.105 17.8788 73.2113 17.8821 73.3175 17.8821C73.583 17.8821 73.8386 17.8456 74.0843 17.7726C74.3299 17.6995 74.559 17.5966 74.7714 17.4638C74.9905 17.3244 75.183 17.1584 75.349 16.9659C75.5216 16.7667 75.6611 16.5477 75.7673 16.3087L77.759 18.3103C77.5067 18.6688 77.2146 18.9908 76.8826 19.2763C76.5573 19.5618 76.2021 19.8041 75.8171 20.0033C75.4387 20.2024 75.037 20.3518 74.6121 20.4514C74.1938 20.5576 73.7623 20.6107 73.3175 20.6107C72.5673 20.6107 71.8602 20.4713 71.1963 20.1925C70.5391 19.9136 69.9615 19.5253 69.4635 19.0273C68.9723 18.5294 68.5839 17.9385 68.2984 17.2547C68.0129 16.5643 67.8702 15.8074 67.8702 14.9842C67.8702 14.141 68.0129 13.3709 68.2984 12.6738C68.5839 11.9767 68.9723 11.3825 69.4635 10.8912C69.9615 10.3999 70.5391 10.0182 71.1963 9.74599C71.8602 9.47379 72.5673 9.33769 73.3175 9.33769C73.7623 9.33769 74.1972 9.3908 74.6221 9.49703C75.0469 9.60325 75.4486 9.75595 75.827 9.95512C76.2121 10.1543 76.5706 10.3999 76.9025 10.6921C77.2345 10.9775 77.5266 11.2995 77.7789 11.658L72.6801 17.8024ZM74.0743 12.1958C73.9482 12.1493 73.8221 12.1194 73.6959 12.1062C73.5764 12.0929 73.4503 12.0862 73.3175 12.0862C72.9457 12.0862 72.5938 12.156 72.2619 12.2954C71.9366 12.4282 71.6511 12.6207 71.4055 12.873C71.1664 13.1252 70.9772 13.4306 70.8378 13.7891C70.6984 14.141 70.6287 14.5394 70.6287 14.9842C70.6287 15.0838 70.632 15.1966 70.6386 15.3228C70.6519 15.4489 70.6685 15.5784 70.6884 15.7111C70.715 15.8373 70.7449 15.9601 70.7781 16.0796C70.8113 16.1991 70.8544 16.3053 70.9075 16.3983L74.0743 12.1958Z" fill="white"/>
<path d="M81.8719 20.4116H79.1532V9.74599H79.8104L80.7067 10.7817C81.1449 10.3833 81.6395 10.0779 82.1905 9.86549C82.7482 9.64641 83.3291 9.53686 83.9333 9.53686C84.5839 9.53686 85.198 9.663 85.7756 9.91529C86.3532 10.1609 86.8578 10.5028 87.2893 10.941C87.7208 11.3725 88.0594 11.8804 88.3051 12.4647C88.5573 13.0423 88.6835 13.6597 88.6835 14.317V20.4116H85.9648V14.317C85.9648 14.0381 85.9117 13.7759 85.8055 13.5302C85.6992 13.2779 85.5532 13.0589 85.3673 12.873C85.1814 12.6871 84.9656 12.541 84.72 12.4348C84.4743 12.3286 84.2121 12.2755 83.9333 12.2755C83.6478 12.2755 83.3789 12.3286 83.1266 12.4348C82.8743 12.541 82.6553 12.6871 82.4694 12.873C82.2835 13.0589 82.1374 13.2779 82.0312 13.5302C81.925 13.7759 81.8719 14.0381 81.8719 14.317V20.4116Z" fill="white"/>
<path d="M95.8337 20.4116C95.1764 20.4116 94.559 20.2887 93.9814 20.0431C93.4038 19.7908 92.8959 19.4489 92.4578 19.0174C92.0262 18.5792 91.6843 18.0713 91.432 17.4937C91.1864 16.9161 91.0636 16.2987 91.0636 15.6414V12.4746H89.7391V9.76591H91.0636V5.50366H93.7723V9.76591H97.8951V12.4746H93.7723V15.6414C93.7723 15.9269 93.8254 16.1958 93.9316 16.4481C94.0378 16.6937 94.1839 16.9095 94.3698 17.0954C94.5557 17.2813 94.7748 17.4306 95.0271 17.5435C95.2793 17.6497 95.5482 17.7028 95.8337 17.7028H97.8951V20.4116H95.8337Z" fill="white"/>
<path d="M105.284 20.4116H99.0702V17.7028H105.284C105.47 17.7028 105.63 17.6365 105.762 17.5037C105.895 17.3709 105.962 17.2116 105.962 17.0257C105.962 16.8331 105.895 16.707 105.762 16.6472C105.63 16.5875 105.47 16.5576 105.284 16.5576H102.456C101.985 16.5576 101.543 16.468 101.132 16.2887C100.72 16.1095 100.361 15.8672 100.056 15.5618C99.7507 15.2497 99.5084 14.8879 99.3291 14.4763C99.1565 14.0647 99.0702 13.6232 99.0702 13.1518C99.0702 12.6804 99.1565 12.2389 99.3291 11.8273C99.5084 11.4157 99.7507 11.0572 100.056 10.7518C100.361 10.4464 100.72 10.2074 101.132 10.0348C101.543 9.85553 101.985 9.76591 102.456 9.76591H107.963V12.4746H102.456C102.27 12.4746 102.111 12.541 101.978 12.6738C101.845 12.8066 101.779 12.9659 101.779 13.1518C101.779 13.3443 101.845 13.5103 101.978 13.6497C102.111 13.7825 102.27 13.8489 102.456 13.8489H105.284C105.749 13.8489 106.187 13.9286 106.599 14.0879C107.01 14.2406 107.369 14.4564 107.674 14.7352C107.98 15.014 108.222 15.3493 108.401 15.741C108.581 16.1327 108.67 16.5609 108.67 17.0257C108.67 17.497 108.581 17.9385 108.401 18.3502C108.222 18.7551 107.98 19.1136 107.674 19.4257C107.369 19.7311 107.01 19.9734 106.599 20.1526C106.187 20.3253 105.749 20.4116 105.284 20.4116Z" fill="white"/>
<path d="M113.47 19.3958C113.47 19.6348 113.427 19.8605 113.341 20.073C113.254 20.2788 113.135 20.458 112.982 20.6107C112.83 20.7634 112.65 20.8829 112.445 20.9692C112.239 21.0622 112.016 21.1087 111.777 21.1087C111.545 21.1087 111.323 21.0622 111.11 20.9692C110.904 20.8829 110.722 20.7634 110.562 20.6107C110.41 20.458 110.287 20.2788 110.194 20.073C110.108 19.8605 110.064 19.6348 110.064 19.3958C110.064 19.1634 110.108 18.9443 110.194 18.7385C110.287 18.5327 110.41 18.3535 110.562 18.2008C110.722 18.0481 110.904 17.9286 111.11 17.8423C111.323 17.7493 111.545 17.7028 111.777 17.7028C112.016 17.7028 112.239 17.7493 112.445 17.8423C112.65 17.9286 112.83 18.0481 112.982 18.2008C113.135 18.3535 113.254 18.5327 113.341 18.7385C113.427 18.9443 113.47 19.1634 113.47 19.3958Z" fill="white"/>
<path d="M118.24 20.4116H115.502V5.50366H118.24V20.4116Z" fill="white"/>
<path d="M122.891 24.4746V21.736L124.405 21.756C124.67 21.756 124.926 21.7128 125.171 21.6265C125.417 21.5402 125.643 21.4207 125.849 21.268C126.061 21.1153 126.247 20.9327 126.406 20.7203C126.566 20.5145 126.695 20.2887 126.795 20.0431C126.496 20.1692 126.191 20.2954 125.879 20.4215C125.573 20.5477 125.264 20.6107 124.952 20.6107C124.295 20.6107 123.678 20.4946 123.1 20.2622C122.523 20.0298 122.015 19.7012 121.576 19.2763C121.145 18.8448 120.803 18.3236 120.551 17.7128C120.305 17.0954 120.182 16.4049 120.182 15.6414V9.74599H122.891V15.6414C122.891 16.0199 122.944 16.3518 123.05 16.6373C123.163 16.9161 123.313 17.1518 123.498 17.3443C123.684 17.5302 123.9 17.6697 124.146 17.7626C124.398 17.8555 124.667 17.902 124.952 17.902C125.231 17.902 125.493 17.8389 125.739 17.7128C125.991 17.58 126.211 17.4074 126.396 17.195C126.582 16.9825 126.728 16.7435 126.835 16.4779C126.941 16.2057 126.994 15.9269 126.994 15.6414V9.74599H129.732V19.0672C129.726 19.8174 129.58 20.5211 129.294 21.1784C129.009 21.8356 128.617 22.4099 128.119 22.9012C127.628 23.3925 127.054 23.7809 126.396 24.0663C125.739 24.3518 125.035 24.4946 124.285 24.4946L122.891 24.4746Z" fill="white"/>
</g>
<path id="Vector" fill-rule="evenodd" clip-rule="evenodd" d="M1.55054 21.1429C0.701667 21.6164 0.681812 22.357 1.50651 22.7851L3.25007 23.6851C3.89967 24.0322 4.77131 24.2374 5.71166 24.2644C6.93843 24.2871 8.0835 24.5434 8.94329 24.9878C9.80198 25.4314 10.3222 26.0347 10.4119 26.6906C10.4985 27.1928 10.9128 27.6515 11.5823 27.9862L13.3259 28.8862C13.3271 28.8869 13.3283 28.8875 13.3296 28.8881C14.1579 29.3157 15.5391 29.2772 16.3895 28.8028L28.5502 22.0194C28.968 21.7863 28.9769 21.4216 28.5699 21.2115L27.828 20.8285C27.421 20.6184 27.4299 20.2537 27.8477 20.0206C28.2656 19.7876 28.9444 19.7686 29.3514 19.9787L30.0933 20.3617C30.5003 20.5718 31.1791 20.5529 31.597 20.3198L34.6172 18.6351C35.4676 18.1608 35.4857 17.4187 34.6574 16.9911C34.6561 16.9905 34.6549 16.9899 34.6537 16.9892L32.9101 16.0892C32.261 15.7431 31.3908 15.5387 30.4524 15.5118C27.9322 15.4615 25.9396 14.4329 25.7484 13.0836C25.6618 12.5814 25.2475 12.1227 24.5779 11.7881L22.8343 10.8881C22.0054 10.4624 20.6271 10.5017 19.7782 10.9752L16.758 12.6599C16.3401 12.893 16.3312 13.2577 16.7382 13.4678L17.4802 13.8508C17.8872 14.0609 17.8783 14.4256 17.4604 14.6587C17.0426 14.8918 16.3638 14.9107 15.9568 14.7006L15.2148 14.3176C14.8078 14.1075 14.129 14.1264 13.7112 14.3595L1.55054 21.1429ZM24.8602 19.2965L23.3763 18.5306C22.9693 18.3205 22.9782 17.9558 23.396 17.7227C23.8139 17.4896 24.4927 17.4707 24.8997 17.6808L26.3836 18.4468C26.7906 18.6569 26.7817 19.0216 26.3638 19.2546C25.946 19.4877 25.2672 19.5066 24.8602 19.2965ZM20.4085 16.9986L18.9246 16.2326C18.5176 16.0225 18.5265 15.6578 18.9443 15.4247C19.3622 15.1916 20.041 15.1727 20.448 15.3828L21.9319 16.1488C22.3389 16.3589 22.33 16.7236 21.9121 16.9567C21.4943 17.1898 20.8155 17.2087 20.4085 16.9986Z" fill="url(#paint0_linear_1_86)"/>
<path id="Vector_2" fill-rule="evenodd" clip-rule="evenodd" d="M1.55054 16.2611C0.701667 16.7346 0.681812 17.4752 1.50651 17.9032L3.25007 18.8032C3.89967 19.1504 4.77131 19.3556 5.71166 19.3825C6.93843 19.4052 8.0835 19.6616 8.94329 20.1059C9.80198 20.5496 10.3222 21.1529 10.4119 21.8088C10.4985 22.311 10.9128 22.7696 11.5823 23.1044L13.3259 24.0044C13.3271 24.005 13.3283 24.0057 13.3296 24.0063C14.1579 24.4339 15.5391 24.3953 16.3895 23.921L28.5502 17.1376C28.968 16.9045 28.9769 16.5398 28.5699 16.3297L27.828 15.9467C27.421 15.7366 27.4299 15.3719 27.8477 15.1388C28.2656 14.9057 28.9444 14.8868 29.3514 15.0969L30.0933 15.4799C30.5003 15.69 31.1791 15.6711 31.597 15.438L34.6172 13.7533C35.4676 13.2789 35.4857 12.5369 34.6574 12.1093C34.6561 12.1087 34.6549 12.108 34.6537 12.1074L32.9101 11.2074C32.261 10.8613 31.3908 10.6569 30.4524 10.6299C27.9322 10.5797 25.9396 9.55109 25.7484 8.20173C25.6618 7.69955 25.2475 7.24089 24.5779 6.90624L22.8343 6.00621C22.0054 5.58052 20.6271 5.61986 19.7782 6.09338L16.758 7.7781C16.3401 8.01118 16.3312 8.37589 16.7382 8.58599L17.4802 8.96898C17.8872 9.17908 17.8783 9.54378 17.4604 9.77687C17.0426 10.0099 16.3638 10.0289 15.9568 9.81876L15.2148 9.43577C14.8078 9.22567 14.129 9.24458 13.7112 9.47766L1.55054 16.2611ZM24.8602 14.4147L23.3763 13.6487C22.9693 13.4386 22.9782 13.0739 23.396 12.8408C23.8139 12.6078 24.4927 12.5888 24.8997 12.7989L26.3836 13.5649C26.7906 13.775 26.7817 14.1397 26.3638 14.3728C25.946 14.6059 25.2672 14.6248 24.8602 14.4147ZM20.4085 12.1167L18.9246 11.3507C18.5176 11.1406 18.5265 10.7759 18.9443 10.5429C19.3622 10.3098 20.041 10.2909 20.448 10.501L21.9319 11.267C22.3389 11.4771 22.33 11.8418 21.9121 12.0748C21.4943 12.3079 20.8155 12.3268 20.4085 12.1167Z" fill="url(#paint1_linear_1_86)"/>
<path id="Vector_3" fill-rule="evenodd" clip-rule="evenodd" d="M1.55054 11.0326C0.701667 11.5061 0.681812 12.2467 1.50651 12.6747L3.25007 13.5747C3.89967 13.9219 4.77131 14.127 5.71166 14.154C6.93843 14.1767 8.0835 14.4331 8.94329 14.8774C9.80198 15.3211 10.3222 15.9244 10.4119 16.5803C10.4985 17.0825 10.9128 17.5411 11.5823 17.8759L13.3259 18.7759C13.3271 18.7765 13.3283 18.7772 13.3296 18.7778C14.1579 19.2054 15.5391 19.1668 16.3895 18.6925L28.5502 11.9091C28.968 11.676 28.9769 11.3113 28.5699 11.1012L27.828 10.7182C27.421 10.5081 27.4299 10.1434 27.8477 9.91029C28.2656 9.67721 28.9444 9.6583 29.3514 9.8684L30.0933 10.2514C30.5003 10.4615 31.1791 10.4426 31.597 10.2095L34.6172 8.52477C35.4676 8.05041 35.4857 7.30837 34.6574 6.88078C34.6561 6.88014 34.6549 6.87951 34.6537 6.87887L32.9101 5.97885C32.261 5.63274 31.3908 5.42836 30.4524 5.4014C27.9322 5.35116 25.9396 4.32258 25.7484 2.97321C25.6618 2.47104 25.2475 2.01238 24.5779 1.67773L22.8343 0.777699C22.0054 0.352005 20.6271 0.391346 19.7782 0.86486L16.758 2.54958C16.3401 2.78266 16.3312 3.14737 16.7382 3.35747L17.4802 3.74046C17.8872 3.95056 17.8783 4.31527 17.4604 4.54835C17.0426 4.78143 16.3638 4.80034 15.9568 4.59024L15.2148 4.20725C14.8078 3.99715 14.129 4.01606 13.7112 4.24915L1.55054 11.0326ZM24.8602 9.18619L23.3763 8.4202C22.9693 8.2101 22.9782 7.8454 23.396 7.61232C23.8139 7.37923 24.4927 7.36032 24.8997 7.57042L26.3836 8.33641C26.7906 8.54651 26.7817 8.91122 26.3638 9.1443C25.946 9.37738 25.2672 9.39629 24.8602 9.18619ZM20.4085 6.88822L18.9246 6.12223C18.5176 5.91213 18.5265 5.54742 18.9443 5.31434C19.3622 5.08126 20.041 5.06235 20.448 5.27245L21.9319 6.03844C22.3389 6.24854 22.33 6.61324 21.9121 6.84633C21.4943 7.07941 20.8155 7.09832 20.4085 6.88822Z" fill="url(#paint2_linear_1_86)"/>
</g>
<defs>
<linearGradient id="paint0_linear_1_86" x1="32.9538" y1="18.3607" x2="0.900516" y2="18.9526" gradientUnits="userSpaceOnUse">
<stop stop-color="#FF5F79" stop-opacity="0.2"/>
<stop offset="1" stop-color="#FF083D" stop-opacity="0.2"/>
</linearGradient>
<linearGradient id="paint1_linear_1_86" x1="32.9538" y1="13.4788" x2="0.900516" y2="14.0707" gradientUnits="userSpaceOnUse">
<stop stop-color="#FF5F79" stop-opacity="0.4"/>
<stop offset="1" stop-color="#FF083D" stop-opacity="0.4"/>
</linearGradient>
<linearGradient id="paint2_linear_1_86" x1="32.9538" y1="8.25031" x2="0.900516" y2="8.84221" gradientUnits="userSpaceOnUse">
<stop stop-color="#FF5F79"/>
<stop offset="1" stop-color="#FF083D"/>
</linearGradient>
</defs>
</svg>
